<svg xmlns="http://www.w3.org/2000/svg" viewBox="0 0 144.71 243.38"><defs><style>.cls-1{fill:#1d1d1b;}.cls-2{fill:#523412;}.cls-3{fill:#eec26d;}.cls-4{fill:#ecb34c;}.cls-5{fill:#b81918;}.cls-6{fill:#706f6f;}.cls-7{fill:#891811;}.cls-8{fill:#432918;}.cls-9{fill:#575756;}.cls-10{fill:#ededed;}.cls-11{fill:#3c3c3b;}.cls-12{fill:#dadada;}.cls-13{fill:#c6c6c6;}.cls-14{fill:#9d9d9c;}.cls-15{fill:#3b2813;}.cls-16{fill:#878787;}</style></defs><g id="Layer_2" data-name="Layer 2"><g id="Layer_6" data-name="Layer 6"><rect class="cls-1" x="138.13" y="26.31" width="6.58" height="6.58"/><rect class="cls-1" x="131.56" y="32.89" width="6.58" height="6.58"/><rect class="cls-2" x="131.56" y="26.31" width="6.58" height="6.58"/><rect class="cls-1" x="131.56" y="19.73" width="6.58" height="6.58"/><rect class="cls-1" x="124.98" y="39.46" width="6.58" height="6.58"/><rect class="cls-2" x="124.98" y="32.89" width="6.58" height="6.58"/><rect class="cls-2" x="124.98" y="26.31" width="6.58" height="6.58"/><rect class="cls-2" x="124.98" y="19.73" width="6.58" height="6.58"/><rect class="cls-1" x="124.98" y="13.16" width="6.58" height="6.58"/><rect class="cls-1" x="118.4" y="184.18" width="6.58" height="6.58"/><rect class="cls-1" x="118.4" y="177.6" width="6.58" height="6.58"/><rect class="cls-1" x="118.4" y="171.02" width="6.58" height="6.58"/><rect class="cls-1" x="118.4" y="164.45" width="6.58" height="6.58"/><rect class="cls-1" x="118.4" y="157.86" width="6.58" height="6.58"/><rect class="cls-1" x="118.4" y="151.29" width="6.58" height="6.58"/><rect class="cls-1" x="118.4" y="144.71" width="6.58" height="6.58"/><rect class="cls-1" x="118.4" y="138.13" width="6.58" height="6.58"/><rect class="cls-1" x="118.4" y="46.05" width="6.58" height="6.58"/><rect class="cls-2" x="118.4" y="39.46" width="6.58" height="6.58"/><rect class="cls-2" x="118.4" y="32.89" width="6.58" height="6.58"/><rect class="cls-2" x="118.4" y="26.31" width="6.58" height="6.58"/><rect class="cls-2" x="118.4" y="19.73" width="6.58" height="6.58"/><rect class="cls-2" x="118.4" y="13.16" width="6.58" height="6.58"/><rect class="cls-1" x="118.4" y="6.58" width="6.58" height="6.58"/><rect class="cls-1" x="111.82" y="184.18" width="6.58" height="6.58"/><rect class="cls-3" x="111.82" y="177.6" width="6.58" height="6.58"/><rect class="cls-4" x="111.82" y="171.02" width="6.58" height="6.58"/><rect class="cls-4" x="111.82" y="164.45" width="6.58" height="6.58"/><rect class="cls-1" x="111.82" y="157.86" width="6.58" height="6.58"/><rect class="cls-5" x="111.82" y="151.29" width="6.58" height="6.58"/><rect class="cls-5" x="111.82" y="144.71" width="6.58" height="6.58"/><rect class="cls-5" x="111.82" y="138.13" width="6.58" height="6.58"/><rect class="cls-1" x="111.82" y="131.56" width="6.58" height="6.58"/><rect class="cls-1" x="111.82" y="98.67" width="6.58" height="6.58"/><rect class="cls-1" x="111.82" y="92.09" width="6.58" height="6.58"/><rect class="cls-1" x="111.82" y="85.51" width="6.58" height="6.58"/><rect class="cls-1" x="111.82" y="78.94" width="6.58" height="6.58"/><rect class="cls-1" x="111.82" y="72.35" width="6.58" height="6.58"/><rect class="cls-1" x="111.82" y="65.78" width="6.58" height="6.58"/><rect class="cls-1" x="111.82" y="59.2" width="6.58" height="6.58"/><rect class="cls-1" x="111.82" y="52.62" width="6.58" height="6.58"/><rect class="cls-1" x="111.82" y="46.05" width="6.58" height="6.58"/><rect class="cls-2" x="111.82" y="39.46" width="6.58" height="6.58"/><rect class="cls-2" x="111.82" y="32.89" width="6.58" height="6.58"/><rect class="cls-2" x="111.82" y="26.31" width="6.58" height="6.58"/><rect class="cls-2" x="111.82" y="19.73" width="6.58" height="6.58"/><rect class="cls-2" x="111.82" y="13.16" width="6.58" height="6.58"/><rect class="cls-1" x="111.82" y="6.58" width="6.58" height="6.58"/><rect class="cls-1" x="105.24" y="197.33" width="6.58" height="6.58"/><rect class="cls-1" x="105.24" y="190.75" width="6.58" height="6.58"/><rect class="cls-1" x="105.24" y="184.18" width="6.58" height="6.58"/><rect class="cls-3" x="105.24" y="177.6" width="6.58" height="6.58"/><rect class="cls-1" x="105.24" y="171.02" width="6.58" height="6.58"/><rect class="cls-1" x="105.24" y="164.45" width="6.58" height="6.58"/><rect class="cls-1" x="105.24" y="157.86" width="6.58" height="6.58"/><rect class="cls-1" x="105.24" y="151.29" width="6.58" height="6.58"/><rect class="cls-1" x="105.24" y="144.71" width="6.58" height="6.58"/><rect class="cls-5" x="105.24" y="138.13" width="6.58" height="6.58"/><rect class="cls-5" x="105.24" y="131.56" width="6.58" height="6.58"/><rect class="cls-1" x="105.24" y="124.98" width="6.58" height="6.58"/><rect class="cls-1" x="105.24" y="105.24" width="6.58" height="6.58"/><rect class="cls-4" x="105.24" y="98.67" width="6.58" height="6.58"/><rect class="cls-4" x="105.24" y="92.09" width="6.58" height="6.58"/><rect class="cls-6" x="105.24" y="85.51" width="6.58" height="6.58"/><rect class="cls-6" x="105.24" y="78.94" width="6.58" height="6.58"/><rect class="cls-6" x="105.24" y="72.35" width="6.58" height="6.58"/><rect class="cls-6" x="105.24" y="65.78" width="6.58" height="6.58"/><rect class="cls-4" x="105.24" y="59.2" width="6.58" height="6.58"/><rect class="cls-3" x="105.24" y="52.62" width="6.58" height="6.58"/><rect class="cls-1" x="105.24" y="46.05" width="6.58" height="6.58"/><rect class="cls-2" x="105.24" y="39.46" width="6.58" height="6.58"/><rect class="cls-2" x="105.24" y="32.89" width="6.58" height="6.58"/><rect class="cls-2" x="105.24" y="26.31" width="6.58" height="6.58"/><rect class="cls-2" x="105.24" y="19.73" width="6.58" height="6.58"/><rect class="cls-2" x="105.24" y="13.16" width="6.58" height="6.58"/><rect class="cls-1" x="105.24" y="6.58" width="6.58" height="6.58"/><rect class="cls-1" x="98.67" y="236.8" width="6.58" height="6.58"/><rect class="cls-1" x="98.67" y="230.22" width="6.58" height="6.58"/><rect class="cls-1" x="98.67" y="223.64" width="6.58" height="6.58"/><rect class="cls-1" x="98.67" y="217.07" width="6.58" height="6.58"/><rect class="cls-1" x="98.67" y="210.49" width="6.58" height="6.58"/><rect class="cls-1" x="98.67" y="203.91" width="6.58" height="6.58"/><rect class="cls-1" x="98.67" y="197.33" width="6.58" height="6.58"/><rect class="cls-7" x="98.67" y="190.75" width="6.58" height="6.58"/><rect class="cls-7" x="98.67" y="184.18" width="6.58" height="6.58"/><rect class="cls-3" x="98.67" y="177.6" width="6.58" height="6.58"/><rect class="cls-5" x="98.67" y="171.02" width="6.58" height="6.58"/><rect class="cls-5" x="98.67" y="164.45" width="6.58" height="6.58"/><rect class="cls-5" x="98.67" y="157.86" width="6.58" height="6.58"/><rect class="cls-5" x="98.67" y="151.29" width="6.58" height="6.58"/><rect class="cls-8" x="98.67" y="144.71" width="6.58" height="6.58"/><rect class="cls-8" x="98.67" y="138.13" width="6.58" height="6.58"/><rect class="cls-5" x="98.67" y="131.56" width="6.58" height="6.58"/><rect class="cls-1" x="98.67" y="124.98" width="6.58" height="6.58"/><rect class="cls-1" x="98.67" y="111.82" width="6.58" height="6.58"/><rect class="cls-4" x="98.67" y="105.24" width="6.58" height="6.58"/><rect class="cls-4" x="98.67" y="98.67" width="6.58" height="6.58"/><rect class="cls-4" x="98.67" y="92.09" width="6.58" height="6.58"/><rect class="cls-6" x="98.67" y="85.51" width="6.58" height="6.58"/><rect class="cls-4" x="98.67" y="78.94" width="6.58" height="6.58"/><rect class="cls-4" x="98.67" y="72.35" width="6.58" height="6.58"/><rect class="cls-6" x="98.67" y="65.78" width="6.58" height="6.58"/><rect class="cls-4" x="98.67" y="59.2" width="6.58" height="6.58"/><rect class="cls-3" x="98.67" y="52.62" width="6.58" height="6.58"/><rect class="cls-1" x="98.67" y="46.05" width="6.58" height="6.58"/><rect class="cls-2" x="98.67" y="39.46" width="6.58" height="6.58"/><rect class="cls-2" x="98.67" y="32.89" width="6.58" height="6.58"/><rect class="cls-2" x="98.67" y="26.31" width="6.58" height="6.58"/><rect class="cls-2" x="98.67" y="19.73" width="6.58" height="6.58"/><rect class="cls-2" x="98.67" y="13.16" width="6.58" height="6.58"/><rect class="cls-1" x="98.67" y="6.58" width="6.58" height="6.58"/><rect class="cls-1" x="92.09" y="236.8" width="6.58" height="6.58"/><rect class="cls-9" x="92.09" y="230.22" width="6.58" height="6.58"/><rect class="cls-9" x="92.09" y="223.64" width="6.58" height="6.58"/><rect class="cls-9" x="92.09" y="217.07" width="6.58" height="6.58"/><rect class="cls-9" x="92.09" y="210.49" width="6.58" height="6.58"/><rect class="cls-9" x="92.09" y="203.91" width="6.58" height="6.58"/><rect class="cls-1" x="92.09" y="197.33" width="6.58" height="6.58"/><rect class="cls-7" x="92.09" y="190.75" width="6.58" height="6.58"/><rect class="cls-10" x="92.09" y="184.18" width="6.58" height="6.58"/><rect class="cls-11" x="92.09" y="177.6" width="6.58" height="6.58"/><rect class="cls-11" x="92.09" y="171.02" width="6.58" height="6.58"/><rect class="cls-11" x="92.09" y="164.45" width="6.58" height="6.58"/><rect class="cls-11" x="92.09" y="157.86" width="6.58" height="6.58"/><rect class="cls-11" x="92.09" y="151.29" width="6.58" height="6.58"/><rect class="cls-12" x="92.09" y="144.71" width="6.58" height="6.58"/><rect class="cls-8" x="92.09" y="138.13" width="6.58" height="6.58"/><rect class="cls-5" x="92.09" y="131.56" width="6.58" height="6.58"/><rect class="cls-1" x="92.09" y="124.98" width="6.58" height="6.58"/><rect class="cls-1" x="92.09" y="111.82" width="6.58" height="6.58"/><rect class="cls-4" x="92.09" y="105.24" width="6.58" height="6.58"/><rect class="cls-4" x="92.09" y="98.67" width="6.58" height="6.58"/><rect class="cls-4" x="92.09" y="92.09" width="6.58" height="6.58"/><rect class="cls-6" x="92.09" y="85.51" width="6.58" height="6.58"/><rect class="cls-4" x="92.09" y="78.94" width="6.58" height="6.58"/><rect class="cls-4" x="92.09" y="72.35" width="6.58" height="6.58"/><rect class="cls-6" x="92.09" y="65.78" width="6.58" height="6.58"/><rect class="cls-4" x="92.09" y="59.2" width="6.58" height="6.58"/><rect class="cls-3" x="92.09" y="52.62" width="6.58" height="6.58"/><rect class="cls-1" x="92.09" y="46.05" width="6.58" height="6.58"/><rect class="cls-2" x="92.09" y="39.46" width="6.58" height="6.58"/><rect class="cls-2" x="92.09" y="32.89" width="6.58" height="6.58"/><rect class="cls-2" x="92.09" y="26.31" width="6.58" height="6.58"/><rect class="cls-2" x="92.09" y="19.73" width="6.58" height="6.58"/><rect class="cls-2" x="92.09" y="13.16" width="6.58" height="6.58"/><rect class="cls-2" x="92.09" y="6.58" width="6.58" height="6.58"/><rect class="cls-1" x="92.09" width="6.58" height="6.58"/><rect class="cls-1" x="85.51" y="236.8" width="6.58" height="6.58"/><rect class="cls-9" x="85.51" y="230.22" width="6.58" height="6.58"/><rect class="cls-9" x="85.51" y="223.64" width="6.58" height="6.58"/><rect class="cls-9" x="85.51" y="217.07" width="6.58" height="6.58"/><rect class="cls-9" x="85.51" y="210.49" width="6.58" height="6.58"/><rect class="cls-9" x="85.51" y="203.91" width="6.58" height="6.58"/><rect class="cls-1" x="85.51" y="197.33" width="6.58" height="6.58"/><rect class="cls-5" x="85.51" y="190.75" width="6.58" height="6.58"/><rect class="cls-10" x="85.51" y="184.18" width="6.58" height="6.58"/><rect class="cls-11" x="85.51" y="177.6" width="6.58" height="6.58"/><rect class="cls-11" x="85.51" y="171.02" width="6.58" height="6.58"/><rect class="cls-11" x="85.51" y="164.45" width="6.58" height="6.58"/><rect class="cls-11" x="85.51" y="157.86" width="6.58" height="6.58"/><rect class="cls-11" x="85.51" y="151.29" width="6.58" height="6.58"/><rect class="cls-12" x="85.51" y="144.71" width="6.58" height="6.58"/><rect class="cls-5" x="85.51" y="138.13" width="6.58" height="6.58"/><rect class="cls-8" x="85.51" y="131.56" width="6.58" height="6.58"/><rect class="cls-1" x="85.51" y="124.98" width="6.58" height="6.58"/><rect class="cls-1" x="85.51" y="111.82" width="6.58" height="6.58"/><rect class="cls-4" x="85.51" y="105.24" width="6.58" height="6.58"/><rect class="cls-4" x="85.51" y="98.67" width="6.58" height="6.58"/><rect class="cls-4" x="85.51" y="92.09" width="6.58" height="6.58"/><rect class="cls-6" x="85.51" y="85.51" width="6.58" height="6.58"/><rect class="cls-6" x="85.51" y="78.94" width="6.58" height="6.58"/><rect class="cls-6" x="85.51" y="72.35" width="6.58" height="6.58"/><rect class="cls-6" x="85.51" y="65.78" width="6.58" height="6.58"/><rect class="cls-4" x="85.51" y="59.2" width="6.58" height="6.58"/><rect class="cls-3" x="85.51" y="52.62" width="6.58" height="6.58"/><rect class="cls-1" x="85.51" y="46.05" width="6.58" height="6.58"/><rect class="cls-2" x="85.51" y="39.46" width="6.58" height="6.58"/><rect class="cls-2" x="85.51" y="32.89" width="6.58" height="6.58"/><rect class="cls-2" x="85.51" y="26.31" width="6.58" height="6.58"/><rect class="cls-2" x="85.51" y="19.73" width="6.58" height="6.58"/><rect class="cls-2" x="85.51" y="13.16" width="6.58" height="6.58"/><rect class="cls-2" x="85.51" y="6.58" width="6.58" height="6.58"/><rect class="cls-1" x="85.51" width="6.58" height="6.58"/><rect class="cls-1" x="78.94" y="236.8" width="6.58" height="6.58"/><rect class="cls-9" x="78.94" y="230.22" width="6.58" height="6.58"/><rect class="cls-9" x="78.94" y="223.64" width="6.58" height="6.58"/><rect class="cls-9" x="78.94" y="217.07" width="6.58" height="6.58"/><rect class="cls-9" x="78.94" y="210.49" width="6.58" height="6.58"/><rect class="cls-9" x="78.94" y="203.91" width="6.58" height="6.58"/><rect class="cls-1" x="78.94" y="197.33" width="6.58" height="6.58"/><rect class="cls-5" x="78.94" y="190.75" width="6.58" height="6.58"/><rect class="cls-10" x="78.94" y="184.18" width="6.58" height="6.58"/><rect class="cls-11" x="78.94" y="177.6" width="6.58" height="6.58"/><rect class="cls-12" x="78.94" y="171.02" width="6.58" height="6.58"/><rect class="cls-12" x="78.94" y="164.45" width="6.58" height="6.58"/><rect class="cls-12" x="78.94" y="157.86" width="6.58" height="6.58"/><rect class="cls-11" x="78.94" y="151.29" width="6.58" height="6.58"/><rect class="cls-12" x="78.94" y="144.71" width="6.58" height="6.58"/><rect class="cls-13" x="78.94" y="138.13" width="6.58" height="6.58"/><rect class="cls-5" x="78.94" y="131.56" width="6.58" height="6.58"/><rect class="cls-8" x="78.94" y="124.98" width="6.58" height="6.58"/><rect class="cls-1" x="78.94" y="118.4" width="6.58" height="6.58"/><rect class="cls-1" x="78.94" y="111.82" width="6.58" height="6.58"/><rect class="cls-4" x="78.94" y="105.24" width="6.58" height="6.58"/><rect class="cls-4" x="78.94" y="98.67" width="6.58" height="6.58"/><rect class="cls-4" x="78.94" y="92.09" width="6.58" height="6.58"/><rect class="cls-4" x="78.94" y="85.51" width="6.58" height="6.58"/><rect class="cls-6" x="78.94" y="78.94" width="6.58" height="6.58"/><rect class="cls-4" x="78.94" y="72.35" width="6.58" height="6.58"/><rect class="cls-4" x="78.94" y="65.78" width="6.58" height="6.58"/><rect class="cls-4" x="78.94" y="59.2" width="6.58" height="6.58"/><rect class="cls-3" x="78.94" y="52.62" width="6.58" height="6.58"/><rect class="cls-1" x="78.94" y="46.05" width="6.58" height="6.58"/><rect class="cls-2" x="78.94" y="39.46" width="6.58" height="6.58"/><rect class="cls-2" x="78.94" y="32.89" width="6.58" height="6.58"/><rect class="cls-2" x="78.94" y="26.31" width="6.58" height="6.58"/><rect class="cls-2" x="78.94" y="19.73" width="6.58" height="6.58"/><rect class="cls-2" x="78.94" y="13.16" width="6.58" height="6.58"/><rect class="cls-2" x="78.94" y="6.58" width="6.58" height="6.58"/><rect class="cls-1" x="78.94" width="6.58" height="6.58"/><rect class="cls-1" x="72.35" y="236.8" width="6.58" height="6.58"/><rect class="cls-9" x="72.35" y="230.22" width="6.58" height="6.58"/><rect class="cls-9" x="72.35" y="223.64" width="6.58" height="6.58"/><rect class="cls-9" x="72.35" y="217.07" width="6.58" height="6.58"/><rect class="cls-9" x="72.35" y="210.49" width="6.58" height="6.58"/><rect class="cls-9" x="72.35" y="203.91" width="6.58" height="6.58"/><rect class="cls-1" x="72.35" y="197.33" width="6.58" height="6.58"/><rect class="cls-5" x="72.35" y="190.75" width="6.58" height="6.58"/><rect class="cls-10" x="72.35" y="184.18" width="6.58" height="6.58"/><rect class="cls-12" x="72.35" y="177.6" width="6.58" height="6.58"/><rect class="cls-11" x="72.35" y="171.02" width="6.58" height="6.58"/><rect class="cls-11" x="72.35" y="164.45" width="6.58" height="6.58"/><rect class="cls-11" x="72.35" y="157.86" width="6.58" height="6.58"/><rect class="cls-12" x="72.35" y="151.29" width="6.58" height="6.58"/><rect class="cls-12" x="72.35" y="144.71" width="6.58" height="6.58"/><rect class="cls-13" x="72.35" y="138.13" width="6.58" height="6.58"/><rect class="cls-5" x="72.35" y="131.56" width="6.58" height="6.58"/><rect class="cls-1" x="72.35" y="124.98" width="6.58" height="6.58"/><rect class="cls-4" x="72.35" y="118.4" width="6.58" height="6.58"/><rect class="cls-1" x="72.35" y="111.82" width="6.58" height="6.58"/><rect class="cls-4" x="72.35" y="105.24" width="6.58" height="6.58"/><rect class="cls-4" x="72.35" y="98.67" width="6.58" height="6.58"/><rect class="cls-4" x="72.35" y="92.09" width="6.58" height="6.58"/><rect class="cls-4" x="72.35" y="85.51" width="6.58" height="6.58"/><rect class="cls-6" x="72.35" y="78.94" width="6.58" height="6.58"/><rect class="cls-4" x="72.35" y="72.35" width="6.58" height="6.58"/><rect class="cls-4" x="72.35" y="65.78" width="6.58" height="6.58"/><rect class="cls-4" x="72.35" y="59.2" width="6.58" height="6.58"/><rect class="cls-3" x="72.35" y="52.62" width="6.58" height="6.58"/><rect class="cls-1" x="72.35" y="46.05" width="6.58" height="6.58"/><rect class="cls-2" x="72.35" y="39.46" width="6.58" height="6.58"/><rect class="cls-2" x="72.35" y="32.89" width="6.58" height="6.58"/><rect class="cls-2" x="72.35" y="26.31" width="6.58" height="6.58"/><rect class="cls-2" x="72.35" y="19.73" width="6.58" height="6.58"/><rect class="cls-2" x="72.35" y="13.16" width="6.58" height="6.58"/><rect class="cls-2" x="72.35" y="6.58" width="6.58" height="6.58"/><rect class="cls-1" x="72.35" width="6.58" height="6.58"/><rect class="cls-1" x="65.78" y="236.8" width="6.58" height="6.58"/><rect class="cls-1" x="65.78" y="230.22" width="6.58" height="6.58"/><rect class="cls-1" x="65.78" y="223.64" width="6.58" height="6.58"/><rect class="cls-1" x="65.78" y="217.07" width="6.58" height="6.58"/><rect class="cls-1" x="65.78" y="210.49" width="6.58" height="6.58"/><rect class="cls-1" x="65.78" y="203.91" width="6.58" height="6.58"/><rect class="cls-1" x="65.78" y="197.33" width="6.58" height="6.58"/><rect class="cls-5" x="65.78" y="190.75" width="6.58" height="6.58"/><rect class="cls-10" x="65.78" y="184.18" width="6.58" height="6.58"/><rect class="cls-12" x="65.78" y="177.6" width="6.58" height="6.58"/><rect class="cls-11" x="65.78" y="171.02" width="6.58" height="6.58"/><rect class="cls-9" x="65.78" y="164.45" width="6.58" height="6.58"/><rect class="cls-11" x="65.78" y="157.86" width="6.58" height="6.58"/><rect class="cls-12" x="65.78" y="151.29" width="6.58" height="6.58"/><rect class="cls-12" x="65.78" y="144.71" width="6.58" height="6.58"/><rect class="cls-13" x="65.78" y="138.13" width="6.58" height="6.58"/><rect class="cls-5" x="65.78" y="131.56" width="6.58" height="6.58"/><rect class="cls-1" x="65.78" y="124.98" width="6.58" height="6.58"/><rect class="cls-3" x="65.78" y="118.4" width="6.58" height="6.58"/><rect class="cls-1" x="65.78" y="111.82" width="6.58" height="6.58"/><rect class="cls-4" x="65.78" y="105.24" width="6.58" height="6.58"/><rect class="cls-4" x="65.78" y="98.67" width="6.58" height="6.58"/><rect class="cls-4" x="65.78" y="92.09" width="6.58" height="6.58"/><rect class="cls-14" x="65.78" y="85.51" width="6.58" height="6.58"/><rect class="cls-14" x="65.78" y="78.94" width="6.58" height="6.58"/><rect class="cls-14" x="65.78" y="72.35" width="6.58" height="6.58"/><rect class="cls-14" x="65.78" y="65.78" width="6.58" height="6.58"/><rect class="cls-4" x="65.78" y="59.2" width="6.58" height="6.58"/><rect class="cls-3" x="65.78" y="52.62" width="6.58" height="6.58"/><rect class="cls-1" x="65.78" y="46.05" width="6.58" height="6.58"/><rect class="cls-2" x="65.78" y="39.46" width="6.58" height="6.58"/><rect class="cls-2" x="65.78" y="32.89" width="6.58" height="6.58"/><rect class="cls-2" x="65.78" y="26.31" width="6.58" height="6.58"/><rect class="cls-2" x="65.78" y="19.73" width="6.58" height="6.58"/><rect class="cls-2" x="65.78" y="13.16" width="6.58" height="6.58"/><rect class="cls-2" x="65.78" y="6.58" width="6.58" height="6.58"/><rect class="cls-1" x="65.78" width="6.58" height="6.58"/><rect class="cls-1" x="59.2" y="236.8" width="6.58" height="6.58"/><rect class="cls-9" x="59.2" y="230.22" width="6.58" height="6.58"/><rect class="cls-9" x="59.2" y="223.64" width="6.58" height="6.58"/><rect class="cls-9" x="59.2" y="217.07" width="6.58" height="6.58"/><rect class="cls-9" x="59.2" y="210.49" width="6.58" height="6.58"/><rect class="cls-9" x="59.2" y="203.91" width="6.58" height="6.58"/><rect class="cls-1" x="59.2" y="197.33" width="6.58" height="6.58"/><rect class="cls-5" x="59.2" y="190.75" width="6.58" height="6.58"/><rect class="cls-10" x="59.2" y="184.18" width="6.58" height="6.58"/><rect class="cls-12" x="59.2" y="177.6" width="6.58" height="6.58"/><rect class="cls-11" x="59.2" y="171.02" width="6.58" height="6.58"/><rect class="cls-11" x="59.2" y="164.45" width="6.58" height="6.58"/><rect class="cls-11" x="59.2" y="157.86" width="6.58" height="6.58"/><rect class="cls-12" x="59.2" y="151.29" width="6.58" height="6.58"/><rect class="cls-12" x="59.2" y="144.71" width="6.58" height="6.58"/><rect class="cls-13" x="59.2" y="138.13" width="6.58" height="6.58"/><rect class="cls-5" x="59.2" y="131.56" width="6.58" height="6.58"/><rect class="cls-1" x="59.2" y="124.98" width="6.58" height="6.58"/><rect class="cls-3" x="59.2" y="118.4" width="6.58" height="6.58"/><rect class="cls-1" x="59.2" y="111.82" width="6.58" height="6.58"/><rect class="cls-4" x="59.2" y="105.24" width="6.58" height="6.58"/><rect class="cls-4" x="59.2" y="98.67" width="6.58" height="6.58"/><rect class="cls-4" x="59.2" y="92.09" width="6.58" height="6.58"/><rect class="cls-14" x="59.2" y="85.51" width="6.58" height="6.58"/><rect class="cls-4" x="59.2" y="78.94" width="6.58" height="6.58"/><rect class="cls-4" x="59.2" y="72.35" width="6.58" height="6.58"/><rect class="cls-14" x="59.2" y="65.78" width="6.58" height="6.58"/><rect class="cls-4" x="59.2" y="59.2" width="6.58" height="6.58"/><rect class="cls-3" x="59.2" y="52.62" width="6.58" height="6.58"/><rect class="cls-1" x="59.2" y="46.05" width="6.58" height="6.58"/><rect class="cls-2" x="59.2" y="39.46" width="6.58" height="6.58"/><rect class="cls-2" x="59.2" y="32.89" width="6.58" height="6.58"/><rect class="cls-2" x="59.2" y="26.31" width="6.58" height="6.58"/><rect class="cls-2" x="59.2" y="19.73" width="6.58" height="6.58"/><rect class="cls-2" x="59.2" y="13.16" width="6.58" height="6.58"/><rect class="cls-2" x="59.2" y="6.58" width="6.58" height="6.58"/><rect class="cls-1" x="59.2" width="6.58" height="6.58"/><rect class="cls-1" x="52.62" y="236.8" width="6.58" height="6.58"/><rect class="cls-9" x="52.62" y="230.22" width="6.58" height="6.58"/><rect class="cls-9" x="52.62" y="223.64" width="6.58" height="6.58"/><rect class="cls-9" x="52.62" y="217.07" width="6.58" height="6.58"/><rect class="cls-9" x="52.62" y="210.49" width="6.58" height="6.58"/><rect class="cls-9" x="52.62" y="203.91" width="6.58" height="6.58"/><rect class="cls-1" x="52.62" y="197.33" width="6.58" height="6.58"/><rect class="cls-5" x="52.62" y="190.75" width="6.58" height="6.58"/><rect class="cls-10" x="52.62" y="184.18" width="6.58" height="6.58"/><rect class="cls-11" x="52.62" y="177.6" width="6.58" height="6.58"/><rect class="cls-12" x="52.62" y="171.02" width="6.58" height="6.58"/><rect class="cls-12" x="52.62" y="164.45" width="6.58" height="6.58"/><rect class="cls-12" x="52.62" y="157.86" width="6.58" height="6.58"/><rect class="cls-11" x="52.62" y="151.29" width="6.58" height="6.58"/><rect class="cls-13" x="52.62" y="144.71" width="6.58" height="6.58"/><rect class="cls-13" x="52.62" y="138.13" width="6.58" height="6.58"/><rect class="cls-5" x="52.62" y="131.56" width="6.58" height="6.58"/><rect class="cls-8" x="52.62" y="124.98" width="6.58" height="6.58"/><rect class="cls-1" x="52.62" y="118.4" width="6.58" height="6.58"/><rect class="cls-1" x="52.62" y="111.82" width="6.58" height="6.58"/><rect class="cls-4" x="52.62" y="105.24" width="6.58" height="6.58"/><rect class="cls-4" x="52.62" y="98.67" width="6.58" height="6.58"/><rect class="cls-4" x="52.62" y="92.09" width="6.58" height="6.58"/><rect class="cls-14" x="52.62" y="85.51" width="6.58" height="6.58"/><rect class="cls-4" x="52.62" y="78.94" width="6.58" height="6.58"/><rect class="cls-4" x="52.62" y="72.35" width="6.58" height="6.58"/><rect class="cls-14" x="52.62" y="65.78" width="6.58" height="6.58"/><rect class="cls-4" x="52.62" y="59.2" width="6.58" height="6.58"/><rect class="cls-3" x="52.62" y="52.62" width="6.58" height="6.58"/><rect class="cls-1" x="52.62" y="46.05" width="6.58" height="6.58"/><rect class="cls-2" x="52.62" y="39.46" width="6.58" height="6.58"/><rect class="cls-2" x="52.62" y="32.89" width="6.58" height="6.58"/><rect class="cls-2" x="52.62" y="26.31" width="6.58" height="6.58"/><rect class="cls-2" x="52.62" y="19.73" width="6.58" height="6.58"/><rect class="cls-2" x="52.62" y="13.16" width="6.58" height="6.58"/><rect class="cls-2" x="52.62" y="6.58" width="6.58" height="6.58"/><rect class="cls-1" x="52.62" width="6.58" height="6.58"/><rect class="cls-1" x="46.05" y="236.8" width="6.58" height="6.58"/><rect class="cls-9" x="46.05" y="230.22" width="6.58" height="6.58"/><rect class="cls-9" x="46.05" y="223.64" width="6.58" height="6.58"/><rect class="cls-9" x="46.05" y="217.07" width="6.58" height="6.58"/><rect class="cls-9" x="46.05" y="210.49" width="6.58" height="6.58"/><rect class="cls-9" x="46.05" y="203.91" width="6.58" height="6.58"/><rect class="cls-1" x="46.05" y="197.33" width="6.58" height="6.58"/><rect class="cls-5" x="46.05" y="190.75" width="6.58" height="6.58"/><rect class="cls-10" x="46.05" y="184.18" width="6.58" height="6.58"/><rect class="cls-11" x="46.05" y="177.6" width="6.58" height="6.58"/><rect class="cls-11" x="46.05" y="171.02" width="6.58" height="6.58"/><rect class="cls-11" x="46.05" y="164.45" width="6.58" height="6.58"/><rect class="cls-11" x="46.05" y="157.86" width="6.58" height="6.58"/><rect class="cls-11" x="46.05" y="151.29" width="6.58" height="6.58"/><rect class="cls-12" x="46.05" y="144.71" width="6.58" height="6.58"/><rect class="cls-5" x="46.05" y="138.13" width="6.58" height="6.58"/><rect class="cls-8" x="46.05" y="131.56" width="6.58" height="6.58"/><rect class="cls-1" x="46.05" y="124.98" width="6.58" height="6.58"/><rect class="cls-1" x="46.05" y="111.82" width="6.58" height="6.58"/><rect class="cls-3" x="46.05" y="105.24" width="6.58" height="6.58"/><rect class="cls-3" x="46.05" y="98.67" width="6.58" height="6.58"/><rect class="cls-4" x="46.05" y="92.09" width="6.58" height="6.58"/><rect class="cls-14" x="46.05" y="85.51" width="6.58" height="6.58"/><rect class="cls-14" x="46.05" y="78.94" width="6.58" height="6.58"/><rect class="cls-14" x="46.05" y="72.35" width="6.58" height="6.58"/><rect class="cls-14" x="46.05" y="65.78" width="6.58" height="6.58"/><rect class="cls-3" x="46.05" y="59.2" width="6.58" height="6.58"/><rect class="cls-3" x="46.05" y="52.62" width="6.58" height="6.58"/><rect class="cls-3" x="46.05" y="46.05" width="6.58" height="6.58"/><rect class="cls-1" x="46.05" y="39.46" width="6.58" height="6.58"/><rect class="cls-2" x="46.05" y="32.89" width="6.58" height="6.58"/><rect class="cls-2" x="46.05" y="26.31" width="6.58" height="6.58"/><rect class="cls-2" x="46.05" y="19.73" width="6.58" height="6.58"/><rect class="cls-15" x="46.05" y="13.16" width="6.58" height="6.58"/><rect class="cls-15" x="46.05" y="6.58" width="6.58" height="6.58"/><rect class="cls-1" x="46.05" width="6.58" height="6.58"/><rect class="cls-1" x="39.47" y="236.8" width="6.58" height="6.58"/><rect class="cls-9" x="39.47" y="230.22" width="6.58" height="6.58"/><rect class="cls-9" x="39.47" y="223.64" width="6.58" height="6.58"/><rect class="cls-9" x="39.47" y="217.07" width="6.58" height="6.58"/><rect class="cls-9" x="39.47" y="210.49" width="6.58" height="6.58"/><rect class="cls-9" x="39.47" y="203.91" width="6.58" height="6.58"/><rect class="cls-1" x="39.47" y="197.33" width="6.58" height="6.58"/><rect class="cls-5" x="39.47" y="190.75" width="6.58" height="6.58"/><rect class="cls-10" x="39.47" y="184.18" width="6.58" height="6.58"/><rect class="cls-11" x="39.47" y="177.6" width="6.58" height="6.58"/><rect class="cls-11" x="39.47" y="171.02" width="6.58" height="6.58"/><rect class="cls-11" x="39.47" y="164.45" width="6.58" height="6.58"/><rect class="cls-11" x="39.47" y="157.86" width="6.58" height="6.58"/><rect class="cls-11" x="39.47" y="151.29" width="6.58" height="6.58"/><rect class="cls-12" x="39.47" y="144.71" width="6.58" height="6.58"/><rect class="cls-5" x="39.47" y="138.13" width="6.58" height="6.58"/><rect class="cls-8" x="39.47" y="131.56" width="6.58" height="6.58"/><rect class="cls-1" x="39.47" y="124.98" width="6.58" height="6.58"/><rect class="cls-1" x="39.47" y="111.82" width="6.58" height="6.58"/><rect class="cls-3" x="39.47" y="105.24" width="6.58" height="6.58"/><rect class="cls-3" x="39.47" y="98.67" width="6.58" height="6.58"/><rect class="cls-4" x="39.47" y="92.09" width="6.58" height="6.58"/><rect class="cls-3" x="39.47" y="85.51" width="6.58" height="6.58"/><rect class="cls-14" x="39.47" y="78.94" width="6.58" height="6.58"/><rect class="cls-3" x="39.47" y="72.35" width="6.58" height="6.58"/><rect class="cls-3" x="39.47" y="65.78" width="6.58" height="6.58"/><rect class="cls-3" x="39.47" y="59.2" width="6.58" height="6.58"/><rect class="cls-1" x="39.47" y="52.62" width="6.58" height="6.58"/><rect class="cls-1" x="39.47" y="46.05" width="6.58" height="6.58"/><rect class="cls-2" x="39.47" y="39.46" width="6.58" height="6.58"/><rect class="cls-2" x="39.47" y="32.89" width="6.58" height="6.58"/><rect class="cls-2" x="39.47" y="26.31" width="6.58" height="6.58"/><rect class="cls-15" x="39.47" y="19.73" width="6.58" height="6.58"/><rect class="cls-15" x="39.47" y="13.16" width="6.58" height="6.58"/><rect class="cls-15" x="39.47" y="6.58" width="6.58" height="6.58"/><rect class="cls-1" x="39.47" width="6.58" height="6.58"/><rect class="cls-1" x="32.89" y="236.8" width="6.58" height="6.58"/><rect class="cls-1" x="32.89" y="230.22" width="6.58" height="6.58"/><rect class="cls-1" x="32.89" y="223.64" width="6.58" height="6.58"/><rect class="cls-1" x="32.89" y="217.07" width="6.58" height="6.58"/><rect class="cls-1" x="32.89" y="210.49" width="6.58" height="6.58"/><rect class="cls-1" x="32.89" y="203.91" width="6.58" height="6.58"/><rect class="cls-1" x="32.89" y="197.33" width="6.58" height="6.58"/><rect class="cls-5" x="32.89" y="190.75" width="6.58" height="6.58"/><rect class="cls-5" x="32.89" y="184.18" width="6.58" height="6.58"/><rect class="cls-3" x="32.89" y="177.6" width="6.58" height="6.58"/><rect class="cls-5" x="32.89" y="171.02" width="6.58" height="6.58"/><rect class="cls-5" x="32.89" y="164.45" width="6.58" height="6.58"/><rect class="cls-5" x="32.89" y="157.86" width="6.58" height="6.58"/><rect class="cls-5" x="32.89" y="151.29" width="6.58" height="6.58"/><rect class="cls-8" x="32.89" y="144.71" width="6.58" height="6.58"/><rect class="cls-8" x="32.89" y="138.13" width="6.58" height="6.58"/><rect class="cls-7" x="32.89" y="131.56" width="6.58" height="6.58"/><rect class="cls-1" x="32.89" y="124.98" width="6.58" height="6.58"/><rect class="cls-1" x="32.89" y="111.82" width="6.58" height="6.58"/><rect class="cls-3" x="32.89" y="105.24" width="6.58" height="6.58"/><rect class="cls-3" x="32.89" y="98.67" width="6.58" height="6.58"/><rect class="cls-4" x="32.89" y="92.09" width="6.58" height="6.58"/><rect class="cls-3" x="32.89" y="85.51" width="6.58" height="6.58"/><rect class="cls-14" x="32.89" y="78.94" width="6.58" height="6.58"/><rect class="cls-3" x="32.89" y="72.35" width="6.58" height="6.58"/><rect class="cls-3" x="32.89" y="65.78" width="6.58" height="6.58"/><rect class="cls-1" x="32.89" y="59.2" width="6.58" height="6.58"/><rect class="cls-2" x="32.89" y="52.62" width="6.58" height="6.58"/><rect class="cls-2" x="32.89" y="46.05" width="6.58" height="6.58"/><rect class="cls-2" x="32.89" y="39.46" width="6.58" height="6.58"/><rect class="cls-15" x="32.89" y="32.89" width="6.58" height="6.58"/><rect class="cls-15" x="32.89" y="26.31" width="6.58" height="6.58"/><rect class="cls-15" x="32.89" y="19.73" width="6.58" height="6.58"/><rect class="cls-15" x="32.89" y="13.16" width="6.58" height="6.58"/><rect class="cls-15" x="32.89" y="6.58" width="6.58" height="6.58"/><rect class="cls-1" x="32.89" width="6.58" height="6.58"/><rect class="cls-1" x="26.31" y="197.33" width="6.58" height="6.58"/><rect class="cls-1" x="26.31" y="190.75" width="6.58" height="6.58"/><rect class="cls-1" x="26.31" y="184.18" width="6.58" height="6.58"/><rect class="cls-3" x="26.31" y="177.6" width="6.58" height="6.58"/><rect class="cls-1" x="26.31" y="171.02" width="6.58" height="6.58"/><rect class="cls-1" x="26.31" y="164.45" width="6.58" height="6.58"/><rect class="cls-1" x="26.31" y="157.86" width="6.58" height="6.58"/><rect class="cls-1" x="26.31" y="151.29" width="6.58" height="6.58"/><rect class="cls-1" x="26.31" y="144.71" width="6.58" height="6.58"/><rect class="cls-7" x="26.31" y="138.13" width="6.58" height="6.58"/><rect class="cls-7" x="26.31" y="131.56" width="6.58" height="6.58"/><rect class="cls-1" x="26.31" y="124.98" width="6.58" height="6.58"/><rect class="cls-1" x="26.31" y="105.24" width="6.58" height="6.58"/><rect class="cls-3" x="26.31" y="98.67" width="6.58" height="6.58"/><rect class="cls-3" x="26.31" y="92.09" width="6.58" height="6.58"/><rect class="cls-3" x="26.31" y="85.51" width="6.58" height="6.58"/><rect class="cls-14" x="26.31" y="78.94" width="6.58" height="6.58"/><rect class="cls-3" x="26.31" y="72.35" width="6.58" height="6.58"/><rect class="cls-1" x="26.31" y="65.78" width="6.58" height="6.58"/><rect class="cls-2" x="26.31" y="59.2" width="6.58" height="6.58"/><rect class="cls-2" x="26.31" y="52.62" width="6.58" height="6.58"/><rect class="cls-15" x="26.31" y="46.05" width="6.58" height="6.58"/><rect class="cls-15" x="26.31" y="39.46" width="6.58" height="6.58"/><rect class="cls-15" x="26.31" y="32.89" width="6.58" height="6.58"/><rect class="cls-15" x="26.31" y="26.31" width="6.58" height="6.58"/><rect class="cls-15" x="26.31" y="19.73" width="6.58" height="6.58"/><rect class="cls-15" x="26.31" y="13.16" width="6.58" height="6.58"/><rect class="cls-1" x="26.31" y="6.58" width="6.58" height="6.58"/><rect class="cls-1" x="19.73" y="184.18" width="6.58" height="6.58"/><rect class="cls-3" x="19.73" y="177.6" width="6.58" height="6.58"/><rect class="cls-4" x="19.73" y="171.02" width="6.58" height="6.58"/><rect class="cls-4" x="19.73" y="164.45" width="6.58" height="6.58"/><rect class="cls-1" x="19.73" y="157.86" width="6.58" height="6.58"/><rect class="cls-5" x="19.73" y="151.29" width="6.58" height="6.58"/><rect class="cls-5" x="19.73" y="144.71" width="6.58" height="6.58"/><rect class="cls-5" x="19.73" y="138.13" width="6.58" height="6.58"/><rect class="cls-1" x="19.73" y="131.56" width="6.58" height="6.58"/><rect class="cls-1" x="19.73" y="98.67" width="6.58" height="6.58"/><rect class="cls-1" x="19.73" y="92.09" width="6.58" height="6.58"/><rect class="cls-1" x="19.73" y="85.51" width="6.58" height="6.58"/><rect class="cls-16" x="19.73" y="78.94" width="6.58" height="6.58"/><rect class="cls-1" x="19.73" y="72.35" width="6.58" height="6.58"/><rect class="cls-2" x="19.73" y="65.78" width="6.58" height="6.58"/><rect class="cls-2" x="19.73" y="59.2" width="6.58" height="6.58"/><rect class="cls-15" x="19.73" y="52.62" width="6.58" height="6.58"/><rect class="cls-15" x="19.73" y="46.05" width="6.58" height="6.58"/><rect class="cls-15" x="19.73" y="39.46" width="6.58" height="6.58"/><rect class="cls-15" x="19.73" y="32.89" width="6.58" height="6.58"/><rect class="cls-15" x="19.73" y="26.31" width="6.58" height="6.58"/><rect class="cls-15" x="19.73" y="19.73" width="6.58" height="6.58"/><rect class="cls-1" x="19.73" y="13.16" width="6.58" height="6.58"/><rect class="cls-1" x="19.73" y="6.58" width="6.58" height="6.58"/><rect class="cls-1" x="13.16" y="177.6" width="6.58" height="6.58"/><rect class="cls-1" x="13.16" y="171.02" width="6.58" height="6.58"/><rect class="cls-1" x="13.16" y="164.45" width="6.58" height="6.58"/><rect class="cls-1" x="13.16" y="157.86" width="6.58" height="6.58"/><rect class="cls-1" x="13.16" y="151.29" width="6.58" height="6.58"/><rect class="cls-1" x="13.16" y="144.71" width="6.58" height="6.58"/><rect class="cls-1" x="13.16" y="138.13" width="6.58" height="6.58"/><rect class="cls-1" x="13.16" y="72.35" width="6.58" height="6.58"/><rect class="cls-2" x="13.16" y="65.78" width="6.58" height="6.58"/><rect class="cls-15" x="13.16" y="59.2" width="6.58" height="6.58"/><rect class="cls-15" x="13.16" y="52.62" width="6.58" height="6.58"/><rect class="cls-15" x="13.16" y="46.05" width="6.58" height="6.58"/><rect class="cls-15" x="13.16" y="39.46" width="6.58" height="6.58"/><rect class="cls-15" x="13.16" y="32.89" width="6.58" height="6.58"/><rect class="cls-15" x="13.16" y="26.31" width="6.58" height="6.58"/><rect class="cls-1" x="13.16" y="19.73" width="6.58" height="6.58"/><rect class="cls-1" x="13.16" y="13.16" width="6.58" height="6.58"/><rect class="cls-15" x="6.58" y="65.78" width="6.58" height="6.58"/><rect class="cls-15" x="6.58" y="59.2" width="6.58" height="6.58"/><rect class="cls-15" x="6.58" y="52.62" width="6.58" height="6.58"/><rect class="cls-15" x="6.58" y="46.05" width="6.58" height="6.58"/><rect class="cls-15" x="6.58" y="39.46" width="6.58" height="6.58"/><rect class="cls-15" x="6.58" y="32.89" width="6.58" height="6.58"/><rect class="cls-1" x="6.58" y="26.31" width="6.58" height="6.58"/><rect class="cls-1" x="6.58" y="19.73" width="6.58" height="6.58"/><rect class="cls-1" y="59.2" width="6.58" height="6.58"/><rect class="cls-1" y="52.62" width="6.58" height="6.58"/><rect class="cls-1" y="46.05" width="6.58" height="6.58"/><rect class="cls-1" y="39.46" width="6.58" height="6.58"/><rect class="cls-1" y="32.89" width="6.58" height="6.58"/><rect class="cls-1" y="26.31" width="6.58" height="6.58"/></g></g></svg>