<?xml version="1.0" encoding="utf-8"?>
<!-- Generator: Adobe Illustrator 25.0.1, SVG Export Plug-In . SVG Version: 6.00 Build 0)  -->
<svg version="1.1" id="Layer_1" xmlns="http://www.w3.org/2000/svg" xmlns:xlink="http://www.w3.org/1999/xlink" x="0px" y="0px"
	 viewBox="0 0 285.2 179" style="enable-background:new 0 0 285.2 179;" xml:space="preserve">
<style type="text/css">
	.st0{fill:#D0D0CF;}
	.st1{fill:#A9A7A9;}
	.st2{fill:#3B3B3D;}
	.st3{fill:#2D2D2E;}
	.st4{fill:#FFFFFF;}
	.st5{fill:#9D9D9C;}
	.st6{fill:#256EB5;}
	.st7{fill:#009640;}
	.st8{fill:#BE1622;}
	.st9{fill:#F39200;}
</style>
<g id="Layer_2_1_">
	<g id="Layer_3">
		<rect x="14.4" y="154.9" class="st0" width="250" height="9.5"/>
		<path class="st1" d="M256.7,170H22.1c-3.2,0-6.1-2.1-7.7-5.6h250C262.9,167.9,259.9,170,256.7,170z"/>
		<path class="st1" d="M107.9,154.9H171l0,0l0,0c0,3.1-2,5.7-4.6,5.7h-54C109.9,160.6,107.9,158,107.9,154.9
			C107.9,154.9,107.9,154.9,107.9,154.9z"/>
		<rect x="33.2" class="st2" width="212.5" height="154.9"/>
		<rect x="41.2" y="5.8" class="st3" width="196.6" height="143.3"/>
		<rect x="208.5" y="5.8" class="st4" width="13.7" height="4.6"/>
		<rect x="41.2" y="5.8" class="st5" width="13.7" height="4.6"/>
		<rect x="89.6" y="5.8" class="st5" width="13.7" height="4.6"/>
		<rect x="65.4" y="5.8" class="st5" width="13.7" height="4.6"/>
		<rect x="41.2" y="20.2" class="st6" width="4.8" height="4.6"/>
		<rect x="54.9" y="20.2" class="st7" width="51.6" height="4.6"/>
		<rect x="80.7" y="32.3" class="st7" width="25.8" height="4.6"/>
		<rect x="80.7" y="44.4" class="st7" width="47.5" height="4.6"/>
		<rect x="104.4" y="56.5" class="st7" width="12.9" height="4.6"/>
		<rect x="104.4" y="117.1" class="st7" width="12.9" height="4.6"/>
		<rect x="72.6" y="68.6" class="st7" width="40.4" height="4.6"/>
		<rect x="113" y="80.7" class="st7" width="36.5" height="4.6"/>
		<rect x="113" y="141.3" class="st7" width="36.5" height="4.6"/>
		<rect x="167.7" y="105" class="st7" width="36.5" height="4.6"/>
		<rect x="113" y="92.9" class="st8" width="36.5" height="4.6"/>
		<rect x="51.2" y="129.2" class="st8" width="36.5" height="4.6"/>
		<rect x="41.2" y="32.3" class="st6" width="4.8" height="4.6"/>
		<rect x="41.2" y="44.4" class="st6" width="4.8" height="4.6"/>
		<rect x="41.2" y="56.5" class="st6" width="4.8" height="4.6"/>
		<rect x="41.2" y="68.6" class="st6" width="4.8" height="4.6"/>
		<rect x="41.2" y="80.7" class="st6" width="4.8" height="4.6"/>
		<rect x="41.2" y="92.9" class="st6" width="4.8" height="4.6"/>
		<rect x="41.2" y="105" class="st6" width="4.8" height="4.6"/>
		<rect x="41.2" y="117.1" class="st6" width="4.8" height="4.6"/>
		<rect x="41.2" y="129.2" class="st6" width="4.8" height="4.6"/>
		<rect x="41.2" y="141.3" class="st6" width="4.8" height="4.6"/>
		<rect x="230.9" y="5.8" class="st9" width="6.8" height="4.6"/>
	</g>
</g>
</svg>
