<?xml version="1.0" encoding="utf-8"?>
<!-- Generator: Adobe Illustrator 25.0.1, SVG Export Plug-In . SVG Version: 6.00 Build 0)  -->
<svg version="1.1" id="Layer_1" xmlns="http://www.w3.org/2000/svg" xmlns:xlink="http://www.w3.org/1999/xlink" x="0px" y="0px"
	 viewBox="0 0 96.8 202.3" style="enable-background:new 0 0 96.8 202.3;" xml:space="preserve">
<style type="text/css">
	.st0{fill:#D66A13;}
	.st1{fill:none;stroke:#D66A13;stroke-width:3.7424;stroke-miterlimit:10;}
	.st2{fill:#F9B119;}
	.st3{fill:#C0901A;}
	.st4{fill:#775A14;}
	.st5{fill:none;stroke:#1D1D1B;stroke-width:0.1834;stroke-linecap:round;stroke-linejoin:round;}
</style>
<g id="Layer_2_1_">
	<g id="Layer_5">
		<rect x="44.3" y="96.5" class="st0" width="8.1" height="63.6"/>
		<polyline class="st1" points="81.3,35.5 81.3,95.2 15.4,95.2 15.4,35.5 		"/>
		<path class="st2" d="M22.5,53.2H9C8.2,47.1,8.2,41,9,34.9h13.4C21.6,41,21.6,47.1,22.5,53.2z"/>
		<path class="st2" d="M74.3,53.2h13.5c0.9-6.1,0.9-12.3,0-18.3H74.3C75.2,41,75.2,47.1,74.3,53.2z"/>
		<path class="st3" d="M35.8,0h25.1c9.7,0,17.6,8,17.6,17.9v53.2C78.5,81,70.6,89,60.9,89H35.8c-9.7,0-17.6-8-17.6-17.9V17.9
			C18.2,8,26.1,0,35.8,0z"/>
		<path class="st2" d="M78.5,51.6L78.5,51.6c-20,1.6-40.1,1.6-60.2,0h-0.1v-2.3h0.1c20,1.6,40.1,1.6,60.2,0l0,0L78.5,51.6z"/>
		<path class="st2" d="M78.5,58.6L78.5,58.6c-20,1.6-40.1,1.6-60.2,0h-0.1v-2.3h0.1c20,1.6,40.1,1.6,60.2,0l0,0L78.5,58.6z"/>
		<path class="st4" d="M34.5,3.5h27.7c4.7,0,8.5,3.9,8.5,8.7v26.3c0,4.8-3.8,8.7-8.5,8.7H34.5c-4.7,0-8.5-3.9-8.5-8.7V12.2
			C26,7.4,29.8,3.5,34.5,3.5z"/>
		<line class="st5" x1="35.6" y1="3.5" x2="26" y2="13.3"/>
		<line class="st5" x1="40.8" y1="3.5" x2="26" y2="18.6"/>
		<line class="st5" x1="45.6" y1="3.5" x2="26" y2="23.5"/>
		<line class="st5" x1="50.4" y1="3.5" x2="26" y2="28.4"/>
		<line class="st5" x1="55.2" y1="3.5" x2="26" y2="33.3"/>
		<line class="st5" x1="60" y1="3.5" x2="26" y2="38.1"/>
		<line class="st5" x1="64.5" y1="3.8" x2="26.8" y2="42.2"/>
		<line class="st5" x1="67.7" y1="5.5" x2="28.9" y2="45"/>
		<line class="st5" x1="70" y1="8.6" x2="32.3" y2="46.9"/>
		<line class="st5" x1="70.8" y1="13.2" x2="37.4" y2="47.2"/>
		<line class="st5" x1="70.8" y1="18.4" x2="42.5" y2="47.2"/>
		<line class="st5" x1="70.8" y1="23.3" x2="47.3" y2="47.2"/>
		<line class="st5" x1="70.8" y1="29.2" x2="53.1" y2="47.2"/>
		<line class="st5" x1="70.8" y1="36.4" x2="60.2" y2="47.2"/>
		<ellipse class="st0" cx="48.3" cy="160.1" rx="38.4" ry="9.9"/>
	</g>
</g>
</svg>
