<?xml version="1.0" encoding="utf-8"?>
<!-- Generator: Adobe Illustrator 25.0.1, SVG Export Plug-In . SVG Version: 6.00 Build 0)  -->
<svg version="1.1" id="Layer_1" xmlns="http://www.w3.org/2000/svg" xmlns:xlink="http://www.w3.org/1999/xlink" x="0px" y="0px"
	 viewBox="0 0 200 200" style="enable-background:new 0 0 200 200;" xml:space="preserve">
<style type="text/css">
	.st0{fill:#0B0B0D;}
	.st1{fill:#1C1F1D;}
	.st2{fill:#A6A9A8;}
	.st3{fill:#D1CCD4;}
	.st4{fill:#CECDD3;}
	.st5{fill:#F2F2F0;}
	.st6{fill:#A8A9AA;}
	.st7{fill:#DADAE4;}
	.st8{fill:#0C0C0C;}
	.st9{fill:#0D0D0C;}
	.st10{fill:#625445;}
	.st11{fill:#514438;}
	.st12{fill:none;stroke:#FFFFFF;stroke-width:0.9482;stroke-miterlimit:10;}
	.st13{fill:#1D1D1B;}
	.st14{fill:none;}
	.st15{fill:#80807E;}
	.st16{fill:#F3F2F7;}
	.st17{fill:#F2F2F2;}
	.st18{fill:#D6DBE1;}
</style>
<g id="Layer_2_1_">
	<g id="Layer_4">
		<rect y="74" class="st0" width="200" height="118.4"/>
		<rect x="7" y="74" class="st1" width="186" height="118.4"/>
		<rect y="179.3" class="st2" width="7" height="13.1"/>
		<rect x="193" y="179.3" class="st2" width="7" height="13.1"/>
		<rect x="7" y="179.3" class="st3" width="186" height="13.1"/>
		<path class="st4" d="M30.2,111.8L28.7,123c-4.6,0.1-8.3,4.1-8.2,9c0.1,4.9,3.9,8.8,8.5,8.7c4.3-0.1,7.8-3.6,8.1-8.1
			c0-0.2,0-0.4,0-0.5v-20.1h-6.9V111.8z"/>
		<ellipse class="st5" cx="28.9" cy="131.6" rx="4.7" ry="5"/>
		<rect y="48.3" class="st6" width="200" height="25.7"/>
		<rect x="7" y="48.3" class="st4" width="186" height="25.7"/>
		<polyline class="st7" points="62.2,95.1 140.2,95.1 135.1,59.4 66.5,59.4 		"/>
		<ellipse class="st8" cx="101.7" cy="138.7" rx="57.3" ry="60.8"/>
		<ellipse class="st1" cx="101.7" cy="138.7" rx="44" ry="46.7"/>
		<ellipse class="st9" cx="101.7" cy="138.7" rx="35.3" ry="37.5"/>
		<ellipse class="st10" cx="101.7" cy="138.7" rx="21.3" ry="22.6"/>
		<ellipse class="st11" cx="101.7" cy="145.5" rx="14.9" ry="15.8"/>
		<ellipse class="st12" cx="101.7" cy="138.7" rx="51.9" ry="55"/>
		<ellipse class="st13" cx="101.2" cy="71.8" rx="1.3" ry="1.4"/>
		<line class="st14" x1="66" y1="63.3" x2="135.6" y2="63.3"/>
		<polygon class="st13" points="135.8,64.5 65.8,64.5 65.5,67.2 136.2,67.2 		"/>
		<rect y="56.5" class="st15" width="7" height="1.1"/>
		<rect x="7" y="56.5" class="st16" width="186" height="1.1"/>
		<polygon class="st17" points="116.1,29.5 85.2,29.5 66.5,59.4 135.1,59.4 		"/>
		<rect x="193" y="56.5" class="st15" width="7" height="1.1"/>
		<rect x="11.3" y="41.1" class="st17" width="15" height="7.3"/>
		<rect x="15.3" y="36.5" class="st18" width="7.1" height="4.5"/>
	</g>
</g>
</svg>
